<svg width="100%" height="100%" viewBox="0 0 1287 450" fill="none" xmlns="http://www.w3.org/2000/svg">
    <path d="M265.25 315L265 199L207.5 295H193L135.5 200.5V315H104.5V140H131.25L200.75 256L269 140H295.75L296 315H265.25Z" fill="#64D9D9"/>
    <path fill-rule="evenodd" clip-rule="evenodd" d="M200.5 32.2893L33.8852 126.199L34.0222 125.962L4.98655 109.198L197.063 0.937329C199.197 -0.26524 201.803 -0.265242 203.937 0.937328L397.422 109.992C397.622 110.105 397.815 110.226 398.001 110.357L367.42 126.11L367.61 126.478L200.5 32.2893ZM371.985 134.971V321.056L200.5 417.711L29.0151 321.056V134.618L0.0151367 117.875V333.91C0.0151367 336.437 1.37687 338.768 3.57806 340.008L197.063 449.063C199.197 450.265 201.803 450.265 203.937 449.063L397.422 340.008C399.623 338.768 400.985 336.437 400.985 333.91V120.068L372 135L371.985 134.971Z" fill="url(#paint0_linear_402_103)"/>
    <path d="M425.12 258.48C425.12 260.04 425 262.26 424.76 265.14H349.34C350.66 272.22 354.08 277.86 359.6 282.06C365.24 286.14 372.2 288.18 380.48 288.18C391.04 288.18 399.74 284.7 406.58 277.74L418.64 291.6C414.32 296.76 408.86 300.66 402.26 303.3C395.66 305.94 388.22 307.26 379.94 307.26C369.38 307.26 360.08 305.16 352.04 300.96C344 296.76 337.76 290.94 333.32 283.5C329 275.94 326.84 267.42 326.84 257.94C326.84 248.58 328.94 240.18 333.14 232.74C337.46 225.18 343.4 219.3 350.96 215.1C358.52 210.9 367.04 208.8 376.52 208.8C385.88 208.8 394.22 210.9 401.54 215.1C408.98 219.18 414.74 225 418.82 232.56C423.02 240 425.12 248.64 425.12 258.48ZM376.52 226.8C369.32 226.8 363.2 228.96 358.16 233.28C353.24 237.48 350.24 243.12 349.16 250.2H403.7C402.74 243.24 399.8 237.6 394.88 233.28C389.96 228.96 383.84 226.8 376.52 226.8ZM540.873 172.44V306H519.273V293.58C515.553 298.14 510.933 301.56 505.413 303.84C500.013 306.12 494.013 307.26 487.413 307.26C478.173 307.26 469.833 305.22 462.393 301.14C455.073 297.06 449.313 291.3 445.113 283.86C440.913 276.3 438.813 267.66 438.813 257.94C438.813 248.22 440.913 239.64 445.113 232.2C449.313 224.76 455.073 219 462.393 214.92C469.833 210.84 478.173 208.8 487.413 208.8C493.773 208.8 499.593 209.88 504.873 212.04C510.153 214.2 514.653 217.44 518.373 221.76V172.44H540.873ZM490.113 288C495.513 288 500.373 286.8 504.693 284.4C509.013 281.88 512.433 278.34 514.953 273.78C517.473 269.22 518.733 263.94 518.733 257.94C518.733 251.94 517.473 246.66 514.953 242.1C512.433 237.54 509.013 234.06 504.693 231.66C500.373 229.14 495.513 227.88 490.113 227.88C484.713 227.88 479.853 229.14 475.533 231.66C471.213 234.06 467.793 237.54 465.273 242.1C462.753 246.66 461.493 251.94 461.493 257.94C461.493 263.94 462.753 269.22 465.273 273.78C467.793 278.34 471.213 281.88 475.533 284.4C479.853 286.8 484.713 288 490.113 288ZM570.307 209.88H592.807V306H570.307V209.88ZM581.647 194.04C577.567 194.04 574.147 192.78 571.387 190.26C568.627 187.62 567.247 184.38 567.247 180.54C567.247 176.7 568.627 173.52 571.387 171C574.147 168.36 577.567 167.04 581.647 167.04C585.727 167.04 589.147 168.3 591.907 170.82C594.667 173.22 596.047 176.28 596.047 180C596.047 183.96 594.667 187.32 591.907 190.08C589.267 192.72 585.847 194.04 581.647 194.04ZM661.449 307.8C651.729 307.8 642.309 306.42 633.189 303.66C624.189 300.9 617.049 297.24 611.769 292.68L619.869 274.5C625.029 278.58 631.329 281.94 638.769 284.58C646.329 287.1 653.889 288.36 661.449 288.36C670.809 288.36 677.769 286.86 682.329 283.86C687.009 280.86 689.349 276.9 689.349 271.98C689.349 268.38 688.029 265.44 685.389 263.16C682.869 260.76 679.629 258.9 675.669 257.58C671.709 256.26 666.309 254.76 659.469 253.08C649.869 250.8 642.069 248.52 636.069 246.24C630.189 243.96 625.089 240.42 620.769 235.62C616.569 230.7 614.469 224.1 614.469 215.82C614.469 208.86 616.329 202.56 620.049 196.92C623.889 191.16 629.589 186.6 637.149 183.24C644.829 179.88 654.189 178.2 665.229 178.2C672.909 178.2 680.469 179.16 687.909 181.08C695.349 183 701.769 185.76 707.169 189.36L699.789 207.54C694.269 204.3 688.509 201.84 682.509 200.16C676.509 198.48 670.689 197.64 665.049 197.64C655.809 197.64 648.909 199.2 644.349 202.32C639.909 205.44 637.689 209.58 637.689 214.74C637.689 218.34 638.949 221.28 641.469 223.56C644.109 225.84 647.409 227.64 651.369 228.96C655.329 230.28 660.729 231.78 667.569 233.46C676.929 235.62 684.609 237.9 690.609 240.3C696.609 242.58 701.709 246.12 705.909 250.92C710.229 255.72 712.389 262.2 712.389 270.36C712.389 277.32 710.469 283.62 706.629 289.26C702.909 294.9 697.209 299.4 689.529 302.76C681.849 306.12 672.489 307.8 661.449 307.8ZM821.674 209.88L776.674 313.74C772.474 324.18 767.374 331.5 761.374 335.7C755.374 340.02 748.114 342.18 739.594 342.18C734.794 342.18 730.054 341.4 725.374 339.84C720.694 338.28 716.854 336.12 713.854 333.36L722.854 316.8C725.014 318.84 727.534 320.46 730.414 321.66C733.414 322.86 736.414 323.46 739.414 323.46C743.374 323.46 746.614 322.44 749.134 320.4C751.774 318.36 754.174 314.94 756.334 310.14L757.954 306.36L716.014 209.88H739.414L769.654 280.98L800.074 209.88H821.674ZM864.206 307.26C856.406 307.26 848.786 306.24 841.346 304.2C833.906 302.16 827.966 299.58 823.526 296.46L832.166 279.36C836.486 282.24 841.646 284.58 847.646 286.38C853.766 288.06 859.766 288.9 865.646 288.9C879.086 288.9 885.806 285.36 885.806 278.28C885.806 274.92 884.066 272.58 880.586 271.26C877.226 269.94 871.766 268.68 864.206 267.48C856.286 266.28 849.806 264.9 844.766 263.34C839.846 261.78 835.526 259.08 831.806 255.24C828.206 251.28 826.406 245.82 826.406 238.86C826.406 229.74 830.186 222.48 837.746 217.08C845.426 211.56 855.746 208.8 868.706 208.8C875.306 208.8 881.906 209.58 888.506 211.14C895.106 212.58 900.506 214.56 904.706 217.08L896.066 234.18C887.906 229.38 878.726 226.98 868.526 226.98C861.926 226.98 856.886 228 853.406 230.04C850.046 231.96 848.366 234.54 848.366 237.78C848.366 241.38 850.166 243.96 853.766 245.52C857.486 246.96 863.186 248.34 870.866 249.66C878.546 250.86 884.846 252.24 889.766 253.8C894.686 255.36 898.886 258 902.366 261.72C905.966 265.44 907.766 270.72 907.766 277.56C907.766 286.56 903.866 293.76 896.066 299.16C888.266 304.56 877.646 307.26 864.206 307.26ZM984.923 300.78C982.283 302.94 979.043 304.56 975.203 305.64C971.483 306.72 967.523 307.26 963.323 307.26C952.763 307.26 944.603 304.5 938.843 298.98C933.083 293.46 930.203 285.42 930.203 274.86V228.6H914.363V210.6H930.203V188.64H952.703V210.6H978.443V228.6H952.703V274.32C952.703 279 953.843 282.6 956.123 285.12C958.403 287.52 961.703 288.72 966.023 288.72C971.063 288.72 975.263 287.4 978.623 284.76L984.923 300.78ZM1090.63 258.48C1090.63 260.04 1090.51 262.26 1090.27 265.14H1014.85C1016.17 272.22 1019.59 277.86 1025.11 282.06C1030.75 286.14 1037.71 288.18 1045.99 288.18C1056.55 288.18 1065.25 284.7 1072.09 277.74L1084.15 291.6C1079.83 296.76 1074.37 300.66 1067.77 303.3C1061.17 305.94 1053.73 307.26 1045.45 307.26C1034.89 307.26 1025.59 305.16 1017.55 300.96C1009.51 296.76 1003.27 290.94 998.828 283.5C994.508 275.94 992.348 267.42 992.348 257.94C992.348 248.58 994.448 240.18 998.648 232.74C1002.97 225.18 1008.91 219.3 1016.47 215.1C1024.03 210.9 1032.55 208.8 1042.03 208.8C1051.39 208.8 1059.73 210.9 1067.05 215.1C1074.49 219.18 1080.25 225 1084.33 232.56C1088.53 240 1090.63 248.64 1090.63 258.48ZM1042.03 226.8C1034.83 226.8 1028.71 228.96 1023.67 233.28C1018.75 237.48 1015.75 243.12 1014.67 250.2H1069.21C1068.25 243.24 1065.31 237.6 1060.39 233.28C1055.47 228.96 1049.35 226.8 1042.03 226.8ZM1233.56 208.8C1245.68 208.8 1255.28 212.34 1262.36 219.42C1269.44 226.38 1272.98 236.88 1272.98 250.92V306H1250.48V253.8C1250.48 245.4 1248.62 239.1 1244.9 234.9C1241.18 230.58 1235.84 228.42 1228.88 228.42C1221.32 228.42 1215.26 230.94 1210.7 235.98C1206.14 240.9 1203.86 247.98 1203.86 257.22V306H1181.36V253.8C1181.36 245.4 1179.5 239.1 1175.78 234.9C1172.06 230.58 1166.72 228.42 1159.76 228.42C1152.08 228.42 1145.96 230.88 1141.4 235.8C1136.96 240.72 1134.74 247.86 1134.74 257.22V306H1112.24V209.88H1133.66V222.12C1137.26 217.8 1141.76 214.5 1147.16 212.22C1152.56 209.94 1158.56 208.8 1165.16 208.8C1172.36 208.8 1178.72 210.18 1184.24 212.94C1189.88 215.58 1194.32 219.54 1197.56 224.82C1201.52 219.78 1206.62 215.88 1212.86 213.12C1219.1 210.24 1226 208.8 1233.56 208.8Z" fill="url(#paint1_linear_402_103)"/>
    <defs>
        <linearGradient id="paint0_linear_402_103" x1="200.5" y1="0.0354001" x2="200" y2="616.5" gradientUnits="userSpaceOnUse">
            <stop stop-color="#8B62FF" stop-opacity="0.82"/>
            <stop offset="1" stop-color="#4CAEE6"/>
        </linearGradient>
        <linearGradient id="paint1_linear_402_103" x1="277.152" y1="241" x2="1320.33" y2="241" gradientUnits="userSpaceOnUse">
            <stop stop-color="#75EED8"/>
            <stop offset="1" stop-color="#81D1FF" stop-opacity="0.88"/>
        </linearGradient>
    </defs>
</svg>
